<svg width="20" height="16" viewBox="0 0 20 16" fill="none" xmlns="http://www.w3.org/2000/svg">
<path d="M19.4849 8C19.4849 8.44838 19.1517 8.81894 18.7194 8.87759L18.5992 8.88568L0.885674 8.88568C0.39653 8.88568 -1.93062e-06 8.48914 -1.93062e-06 8C-1.93062e-06 7.55162 0.333194 7.18106 0.765495 7.12241L0.885674 7.11432L18.5992 7.11432C19.0883 7.11432 19.4849 7.51085 19.4849 8Z" fill="white"/>
<path d="M8.65482 14.4867C9.00144 14.8319 9.00265 15.3927 8.65752 15.7393C8.34376 16.0544 7.85178 16.084 7.5045 15.8275L7.40498 15.742L0.260528 8.62823C-0.0555256 8.31353 -0.0842764 7.81978 0.174287 7.47251L0.260476 7.37305L7.40493 0.258113C7.75153 -0.0870479 8.3123 -0.0858869 8.65746 0.260707C8.97125 0.575792 8.99881 1.06789 8.74083 1.41408L8.65487 1.51324L2.14098 8.00096L8.65482 14.4867Z" fill="white"/>
</svg>
