<svg width="21" height="24" viewBox="0 0 21 24" fill="none" xmlns="http://www.w3.org/2000/svg">
<path fill-rule="evenodd" clip-rule="evenodd" d="M5.61167 0H15.3895C18.9933 0 21 2.07667 21 5.635V17.6867C21 21.3033 18.9933 23.3333 15.3895 23.3333H5.61167C2.065 23.3333 0 21.3033 0 17.6867V5.635C0 2.07667 2.065 0 5.61167 0ZM5.92758 5.43665V5.42499H9.41475C9.91758 5.42499 10.3259 5.83332 10.3259 6.33382C10.3259 6.84832 9.91758 7.25665 9.41475 7.25665H5.92758C5.42475 7.25665 5.01758 6.84832 5.01758 6.34665C5.01758 5.84499 5.42475 5.43665 5.92758 5.43665ZM5.92758 12.53H15.0742C15.5759 12.53 15.9842 12.1217 15.9842 11.62C15.9842 11.1183 15.5759 10.7088 15.0742 10.7088H5.92758C5.42474 10.7088 5.01758 11.1183 5.01758 11.62C5.01758 12.1217 5.42474 12.53 5.92758 12.53ZM5.92711 17.8617H15.0738C15.5393 17.815 15.8904 17.4172 15.8904 16.9517C15.8904 16.4733 15.5393 16.0767 15.0738 16.03H5.92711C5.57711 15.995 5.23878 16.1583 5.05211 16.4617C4.86544 16.7533 4.86544 17.1383 5.05211 17.4417C5.23878 17.7333 5.57711 17.9083 5.92711 17.8617Z" fill="#1AADB6"/>
</svg>
