<svg width="30" height="30" viewBox="0 0 30 30" fill="none" xmlns="http://www.w3.org/2000/svg">
<path fill-rule="evenodd" clip-rule="evenodd" d="M21.9977 0.0155027C24.1555 -0.119356 26.2832 0.62986 27.8866 2.09832C29.3551 3.70165 30.1043 5.82942 29.9844 8.00215V21.9975C30.1193 24.1702 29.3551 26.298 27.9016 27.9013C26.2982 29.3698 24.1555 30.119 21.9977 29.9842H8.00222C5.82947 30.119 3.70168 29.3698 2.09834 27.9013C0.629865 26.298 -0.119357 24.1702 0.0155028 21.9975V8.00215C-0.119357 5.82942 0.629865 3.70165 2.09834 2.09832C3.70168 0.62986 5.82947 -0.119356 8.00222 0.0155027H21.9977ZM13.471 22.2676L23.5556 12.1532C24.4696 11.2241 24.4696 9.7257 23.5556 8.81166L21.6076 6.8637C20.6785 5.93467 19.1801 5.93467 18.2511 6.8637L17.2471 7.88263C17.0973 8.03247 17.0973 8.28721 17.2471 8.43705C17.2471 8.43705 19.6296 10.8046 19.6746 10.8645C19.8394 11.0443 19.9443 11.2841 19.9443 11.5538C19.9443 12.0932 19.5098 12.5428 18.9553 12.5428C18.7006 12.5428 18.4609 12.4379 18.296 12.273L15.7936 9.78564C15.6737 9.66577 15.464 9.66577 15.3441 9.78564L8.1965 16.9332C7.70202 17.4276 7.41731 18.087 7.40233 18.7912L7.31242 22.3425C7.31242 22.5373 7.37236 22.7171 7.50722 22.852C7.64208 22.9868 7.82189 23.0618 8.01669 23.0618H11.538C12.2573 23.0618 12.9466 22.7771 13.471 22.2676Z" fill="#1AADB6"/>
</svg>
